<svg xmlns="http://www.w3.org/2000/svg" width="523" height="214" viewBox="0 0 523 214" data-shape="true" aria-hidden="true" id="cs-pattern-right">
<path fill="#D24074" d="M313.651 20.388a1.5 1.5 0 11-3 0 1.5 1.5 0 013 0zM332.62 20.388a1.5 1.5 0 11-3.002 0 1.5 1.5 0 013.001 0zM351.587 20.388a1.5 1.5 0 11-3.001 0 1.5 1.5 0 013 0zM370.555 20.388a1.5 1.5 0 11-3.001 0 1.5 1.5 0 013 0zM389.522 20.388a1.5 1.5 0 11-3 0 1.5 1.5 0 013 0zM408.49 20.388a1.5 1.5 0 11-3 0 1.5 1.5 0 013 0zM427.458 20.388a1.5 1.5 0 11-3 0 1.5 1.5 0 013 0zM446.427 20.388a1.5 1.5 0 11-3.001 0 1.5 1.5 0 013 0zM465.394 20.388a1.5 1.5 0 11-3 0 1.5 1.5 0 013 0zM484.362 20.388a1.5 1.5 0 11-3 0 1.5 1.5 0 013 0zM503.33 20.388a1.5 1.5 0 11-3.001 0 1.5 1.5 0 013.001 0zM522.298 20.388a1.5 1.5 0 11-3.001 0 1.5 1.5 0 013 0zM313.651 39.611a1.5 1.5 0 11-3-.001 1.5 1.5 0 013 .001zM332.62 39.611a1.5 1.5 0 11-3.002-.001 1.5 1.5 0 013.001.001zM351.587 39.611a1.5 1.5 0 11-3.001-.001 1.5 1.5 0 013 .001zM370.555 39.611a1.5 1.5 0 11-3.001-.001 1.5 1.5 0 013 .001zM389.522 39.611a1.5 1.5 0 11-3 0 1.5 1.5 0 013 0zM408.49 39.611a1.5 1.5 0 11-3 0 1.5 1.5 0 013 0zM427.458 39.611a1.5 1.5 0 11-3 0 1.5 1.5 0 013 0zM446.427 39.611a1.5 1.5 0 11-3.001-.001 1.5 1.5 0 013 .001zM465.394 39.611a1.5 1.5 0 11-3-.001 1.5 1.5 0 013 .001zM484.362 39.611a1.5 1.5 0 11-3-.001 1.5 1.5 0 013 .001zM503.33 39.611a1.5 1.5 0 11-3.001-.001 1.5 1.5 0 013.001.001zM522.298 39.611a1.5 1.5 0 11-3.001-.001 1.5 1.5 0 013 .001zM313.651 58.834a1.5 1.5 0 11-3 0 1.5 1.5 0 013 0zM332.62 58.834a1.5 1.5 0 11-3 0 1.5 1.5 0 013 0zM351.587 58.834a1.5 1.5 0 11-3 0 1.5 1.5 0 013 0zM370.555 58.834a1.5 1.5 0 11-3 0 1.5 1.5 0 013 0zM389.522 58.834a1.5 1.5 0 11-2.998.001 1.5 1.5 0 012.998-.001zM408.49 58.834a1.5 1.5 0 11-2.998.001 1.5 1.5 0 012.998-.001zM427.458 58.834a1.5 1.5 0 11-2.999.001 1.5 1.5 0 012.999-.001zM446.427 58.834a1.5 1.5 0 11-3 0 1.5 1.5 0 013 0zM465.394 58.834a1.5 1.5 0 11-3 0 1.5 1.5 0 013 0zM484.362 58.834a1.5 1.5 0 11-3 0 1.5 1.5 0 013 0zM503.33 58.834a1.5 1.5 0 11-3 0 1.5 1.5 0 013 0zM522.298 58.834a1.5 1.5 0 11-3 0 1.5 1.5 0 013 0zM313.651 78.057a1.5 1.5 0 11-3 0 1.5 1.5 0 013 0zM332.62 78.057a1.5 1.5 0 11-3.002 0 1.5 1.5 0 013.001 0zM351.587 78.057a1.5 1.5 0 11-3.001 0 1.5 1.5 0 013 0zM370.555 78.057a1.5 1.5 0 11-3.001 0 1.5 1.5 0 013 0zM389.522 78.057a1.5 1.5 0 11-3 0 1.5 1.5 0 013 0zM408.49 78.057a1.5 1.5 0 11-3 0 1.5 1.5 0 013 0zM427.458 78.057a1.5 1.5 0 11-3 0 1.5 1.5 0 013 0zM446.427 78.057a1.5 1.5 0 11-3.001 0 1.5 1.5 0 013 0zM465.394 78.057a1.5 1.5 0 11-3 0 1.5 1.5 0 013 0zM484.362 78.057a1.5 1.5 0 11-3 0 1.5 1.5 0 013 0zM503.33 78.057a1.5 1.5 0 11-3.001 0 1.5 1.5 0 013.001 0zM522.298 78.057a1.5 1.5 0 11-3.001 0 1.5 1.5 0 013 0zM313.651 97.28a1.5 1.5 0 11-3 0 1.5 1.5 0 013 0zM332.62 97.28a1.5 1.5 0 11-3 0 1.5 1.5 0 013 0zM351.587 97.28a1.5 1.5 0 11-3 0 1.5 1.5 0 013 0zM370.555 97.28a1.5 1.5 0 11-3 0 1.5 1.5 0 013 0zM389.522 97.28a1.5 1.5 0 11-2.998.001 1.5 1.5 0 012.998-.001zM408.49 97.28a1.5 1.5 0 11-2.998.001 1.5 1.5 0 012.998-.001zM427.458 97.28a1.5 1.5 0 11-2.999.001 1.5 1.5 0 012.999-.001zM446.427 97.28a1.5 1.5 0 11-3 0 1.5 1.5 0 013 0zM465.394 97.28a1.5 1.5 0 11-3 0 1.5 1.5 0 013 0zM484.362 97.28a1.5 1.5 0 11-3 0 1.5 1.5 0 013 0zM503.33 97.28a1.5 1.5 0 11-3 0 1.5 1.5 0 013 0zM522.298 97.28a1.5 1.5 0 11-3 0 1.5 1.5 0 013 0zM313.651 116.504a1.5 1.5 0 11-3-.001 1.5 1.5 0 013 0zM332.62 116.504a1.5 1.5 0 11-3.002-.001 1.5 1.5 0 013.001 0zM351.587 116.504a1.5 1.5 0 11-3.001-.001 1.5 1.5 0 013 0zM370.555 116.504a1.5 1.5 0 11-3.001-.001 1.5 1.5 0 013 0zM389.522 116.504a1.5 1.5 0 11-3 0 1.5 1.5 0 013 0zM408.49 116.504a1.5 1.5 0 11-3 0 1.5 1.5 0 013 0zM427.458 116.504a1.5 1.5 0 11-3 0 1.5 1.5 0 013 0zM446.427 116.504a1.5 1.5 0 11-3.001-.001 1.5 1.5 0 013 0zM465.394 116.504a1.5 1.5 0 11-3-.001 1.5 1.5 0 013 0zM484.362 116.504a1.5 1.5 0 11-3-.001 1.5 1.5 0 013 0zM503.33 116.504a1.5 1.5 0 11-3.001-.001 1.5 1.5 0 013.001 0zM522.298 116.504a1.5 1.5 0 11-3.001-.001 1.5 1.5 0 013 0zM313.651 135.726a1.5 1.5 0 11-3 0 1.5 1.5 0 013 0zM332.62 135.726a1.5 1.5 0 11-3.002 0 1.5 1.5 0 013.001 0zM351.587 135.726a1.5 1.5 0 11-3.001 0 1.5 1.5 0 013 0zM370.555 135.726a1.5 1.5 0 11-3.001 0 1.5 1.5 0 013 0zM389.522 135.726a1.5 1.5 0 11-3 0 1.5 1.5 0 013 0zM408.49 135.726a1.5 1.5 0 11-3 0 1.5 1.5 0 013 0zM427.458 135.726a1.5 1.5 0 11-3 0 1.5 1.5 0 013 0zM446.427 135.726a1.5 1.5 0 11-3.001 0 1.5 1.5 0 013 0zM465.394 135.726a1.5 1.5 0 11-3 0 1.5 1.5 0 013 0zM484.362 135.726a1.5 1.5 0 11-3 0 1.5 1.5 0 013 0zM503.33 135.726a1.5 1.5 0 11-3.001 0 1.5 1.5 0 013.001 0zM522.298 135.726a1.5 1.5 0 11-3.001 0 1.5 1.5 0 013 0zM313.651 154.95a1.5 1.5 0 11-3-.001 1.5 1.5 0 013 0zM332.62 154.95a1.5 1.5 0 11-3.002-.001 1.5 1.5 0 013.001 0zM351.587 154.95a1.5 1.5 0 11-3.001-.001 1.5 1.5 0 013 0zM370.555 154.95a1.5 1.5 0 11-3.001-.001 1.5 1.5 0 013 0zM389.522 154.95a1.5 1.5 0 11-3 0 1.5 1.5 0 013 0zM408.49 154.95a1.5 1.5 0 11-3 0 1.5 1.5 0 013 0zM427.458 154.95a1.5 1.5 0 11-3 0 1.5 1.5 0 013 0zM446.427 154.95a1.5 1.5 0 11-3.001-.001 1.5 1.5 0 013 0zM465.394 154.95a1.5 1.5 0 11-3-.001 1.5 1.5 0 013 0zM484.362 154.95a1.5 1.5 0 11-3-.001 1.5 1.5 0 013 0zM503.33 154.95a1.5 1.5 0 11-3.001-.001 1.5 1.5 0 013.001 0zM522.298 154.95a1.5 1.5 0 11-3.001-.001 1.5 1.5 0 013 0zM313.651 174.173a1.5 1.5 0 11-3-.002 1.5 1.5 0 013 .002zM332.62 174.173a1.5 1.5 0 11-3.002-.002 1.5 1.5 0 013.001.002zM351.587 174.173a1.5 1.5 0 11-3.001-.002 1.5 1.5 0 013 .002zM370.555 174.173a1.5 1.5 0 11-3.001-.002 1.5 1.5 0 013 .002zM389.522 174.173a1.5 1.5 0 11-3 0 1.5 1.5 0 013 0zM408.49 174.173a1.5 1.5 0 11-3 0 1.5 1.5 0 013 0zM427.458 174.173a1.5 1.5 0 11-3 0 1.5 1.5 0 013 0zM446.427 174.173a1.5 1.5 0 11-3.001-.002 1.5 1.5 0 013 .002zM465.394 174.173a1.5 1.5 0 11-3-.002 1.5 1.5 0 013 .002zM484.362 174.173a1.5 1.5 0 11-3-.002 1.5 1.5 0 013 .002zM503.33 174.173a1.5 1.5 0 11-3.001-.002 1.5 1.5 0 013.001.002zM522.298 174.173a1.5 1.5 0 11-3.001-.002 1.5 1.5 0 013 .002zM313.651 193.395a1.5 1.5 0 11-3 0 1.5 1.5 0 013 0zM332.62 193.395a1.5 1.5 0 11-3 0 1.5 1.5 0 013 0zM351.587 193.395a1.5 1.5 0 11-3 0 1.5 1.5 0 013 0zM370.555 193.395a1.5 1.5 0 11-3 0 1.5 1.5 0 013 0zM389.522 193.395a1.5 1.5 0 11-2.998.002 1.5 1.5 0 012.998-.002zM408.49 193.395a1.5 1.5 0 11-2.998.002 1.5 1.5 0 012.998-.002zM427.458 193.395a1.5 1.5 0 11-2.999.002 1.5 1.5 0 012.999-.002zM446.427 193.395a1.5 1.5 0 11-3 0 1.5 1.5 0 013 0zM465.394 193.395a1.5 1.5 0 11-3 0 1.5 1.5 0 013 0zM484.362 193.395a1.5 1.5 0 11-3 0 1.5 1.5 0 013 0zM503.33 193.395a1.5 1.5 0 11-3 0 1.5 1.5 0 013 0zM522.298 193.395a1.5 1.5 0 11-3 0 1.5 1.5 0 013 0zM313.651 212.619a1.5 1.5 0 11-3-.001 1.5 1.5 0 013 0zM332.62 212.619a1.5 1.5 0 11-3.002-.001 1.5 1.5 0 013.001 0zM351.587 212.619a1.5 1.5 0 11-3.001-.001 1.5 1.5 0 013 0zM370.555 212.619a1.5 1.5 0 11-3.001-.001 1.5 1.5 0 013 0zM389.522 212.619a1.5 1.5 0 11-3 0 1.5 1.5 0 013 0zM408.49 212.619a1.5 1.5 0 11-3 0 1.5 1.5 0 013 0zM427.458 212.619a1.5 1.5 0 11-3 0 1.5 1.5 0 013 0zM446.427 212.619a1.5 1.5 0 11-3.001-.001 1.5 1.5 0 013 0zM465.394 212.619a1.5 1.5 0 11-3-.001 1.5 1.5 0 013 0zM484.362 212.619a1.5 1.5 0 11-3-.001 1.5 1.5 0 013 0zM503.33 212.619a1.5 1.5 0 11-3.001-.001 1.5 1.5 0 013.001 0zM522.298 212.619a1.5 1.5 0 11-3.001-.001 1.5 1.5 0 013 0z"></path>
</svg>